<mxfile host="app.diagrams.net" agent="Mozilla/5.0 (Windows NT 10.0; Win64; x64; rv:132.0) Gecko/20100101 Firefox/132.0" version="24.8.3">
  <diagram name="Page-1" id="9mlMiFtsFnRKaToXRWGT">
    <mxGraphModel dx="3720" dy="2774" grid="1" gridSize="10" guides="1" tooltips="1" connect="1" arrows="1" fold="1" page="1" pageScale="1" pageWidth="1280" pageHeight="720" math="0" shadow="0">
      <root>
        <mxCell id="0" />
        <mxCell id="1" parent="0" />
        <mxCell id="QFEPiinMAQr5u50dVilm-29" value="" style="rounded=0;whiteSpace=wrap;html=1;" vertex="1" parent="1">
          <mxGeometry x="-650" y="-730" width="840" height="1070" as="geometry" />
        </mxCell>
        <mxCell id="QFEPiinMAQr5u50dVilm-4" value="" style="shape=image;verticalLabelPosition=bottom;labelBackgroundColor=default;verticalAlign=top;aspect=fixed;imageAspect=0;image=data:image/png,iVBORw0KGgoAAAANSUhEUgAAAkAAAANgCAYAAADEQde0AAAgAElEQVR4Xu3dMa4lx7GncXITAuQKBOTQ4SaakClAq2huh81VDDDmQNzEOOMMQLkCnitArnreewI17EuKGZUVmZF14kf3ZEZWfvGvyq/r3nv4+YcP3378zH8IIIDAixN4//6bn+3whx9+KN31F198Ubq+/et/ZQB/Kf/fffdh2yV9ToC2sbYQAggUEiBAP4dPgAhQ4S35GQGqpG9tBBBoQ4AAEaC3BAjgeQLoDVCbR7KNIoDALgIEiAARoE8JnCiABGjXE9E6CCDQhgABIkAEiAD9lIDfAWrz+LdRBHoTIEAEiAARIALU+xywewRaEiBABIgAESAC1PLxb9MI9CZAgAgQASJABKj3OWD3CLQkQIAIEAEiQEsE6Ksvf9/yoWrTCHQk8L//z/89atu/JDeRCzzxr2Ai1501xv7P+zPwrN5G6jy1/1l/KZb2S9AEKBI3YxB4DQIEKKePvgnaN2HnJGmuCgFK+l9hEKC5AJqFwBMJEKCcrhEgApSTpLkqBIgAzSXHLAQaEyBAOc0nQAQoJ0lzVQgQAZpLjlkINCZAgHKaT4AIUE6S5qoQIAI0lxyzEGhMgADlNJ8AEaCcJM1VIUAEaC45ZiHQmAABymk+ASJAOUmaq0KACNBccsxCoDEBApTTfAJEgHKSNFeFABGgueSYhUBjAgQop/kEiADlJGmuCgEKCJA/cZ8Ll1kIdCaQJUmzX3IYYf/UAyCyt8gY+/dFiJGcrBqz8h8AkS9LDH0RIgFa1X51EXhdAgRo3NuVB8B49c8+I0AEKJKTVWNW5p8AreqaugggMCRAgIaIPlt5AIxXJ0AE8HUFkABFngDGIIDAEgIEaIyVAPkdoHFK1o14ZQEkQOtyozICCAwIEKBxRAgQARqnZN0IAuSXoNelS2UEGhMgQOPmEyACNE7JuhEEiACtS5fKCDQmQIDGzSdABGicknUjCBABWpculRFoTIAAjZtPgAjQOCXrRhAgArQuXSoj0JgAARo3nwARoHFK1o0gQARoXbpURqAxgYgArfySw7foI38V0rhdto7AEQR2PhN8EeIRLXcRCLweAQL0ej21IwRWEyBAqwmrjwACywkQoOWILYDAyxEgQC/XUhtCoB8BAtSv53aMwF0CBOguQfMRQKCcAAEqb4ELQOBxBAjQ41rmghFA4C2BiAC9e/f1NnDff//nbWtZCAEE5gjsfCb4Jei5HpmFAAIDAgRIRBBA4CoBAnSVmPEIIHAcAQJ0XEtcEALHEyBAx7fIBSKAwIgAARoR8jkCCLwlQIBkAgEEHk+AAD2+hTaAwHYCBGg7cgsigEA2AQKUTVQ9BF6fAAF6/R7bIQIvT4AAvXyLbRCBdAIEKB2pggggsJsAAdpN3HoIPJ8AAXp+D+0AgfYECFD7CACAwGUCBOgyMhMQQOA0AgTotI64HgTOJ0CAzu+RK0QAgQEBAiQiCCBwlQABukrMeAQQOI4AATquJS4IgeMJEKDjW+QCEUBgRIAAjQj5HAEE3hIgQDKBAAKPJ0CAHt9CG0BgOwECtB25BRFAIJsAAcomqh4Cr0+AAL1+j+0QgZcnQIBevsU2iEA6AQKUjlRBBBDYTYAA7SZuPQSeT4AAPb+HdoBAewIEqH0EAEDgMgECdBmZCQggcBoBAnRaR1wPAucTIEDn98gVIoDAgAABEhEEELhKgABdJWY8AggcR4AAHdcSF4TA8QQI0PEtcoEIIDAiQIBGhHyOAAJvCRAgmUAAgccTIECPb6ENILCdAAHajtyCCCCQTYAAZRNVD4HXJ0CAXr/HdojAyxMgQC/fYhtEIJ0AAUpHqiACCOwmQIB2E7ceAs8nQICe30M7QKA9AQLUPgIAIHCZAAG6jMwEBBA4jQABOq0jrgeB8wkQoPN75AoRQGBAgACJCAIIXCVAgK4SMx4BBI4jQICOa4kLQuB4AgTo+Ba5QAQQGBEgQCNCPkcAgbcECJBMIIDA4wkQoMe30AYQ2E6AAG1HbkEEEMgmEBGg9++/yV7239b77rsP29ayEAIIzBHY+Uz4/MOHbz+OLvOrL38/GuJzBBBA4BMCBEggEEDgKgECdJWY8QggcBwBAnRcS1wQAscTIEDHt8gFIoDAiAABGhHyOQIIvCVAgGQCAQQeT4AAPb6FNoDAdgIEaDtyCyKAQDYBApRNVD0EXp8AAXr9HtshAi9PgAC9fIttEIF0AgQoHamCCCCwmwAB2k3cegg8nwABen4P7QCB9gQIUPsIAIDAZQIE6DIyExBA4DQCBOi0jrgeBM4nQIDO75ErRACBAQECJCIIIHCVAAG6Ssx4BBA4jgABOq4lLgiB4wkQoONb5AIRQGBEgACNCPkcAQTeEiBAMoEAAo8nQIAe30IbQGA7AQK0HbkFEUAgmwAByiaqHgKvT4AAvX6P7RCBlydAgF6+xTaIQDoBApSOVEEEENhNgADtJm49BJ5PgAA9v4d2gEB7AgSofQQAQOAyAQJ0GZkJCCBwGgECdFpHXA8C5xMgQOf3yBUigMCAAAESEQQQuEqAAF0lZjwCCBxHgAAd1xIXhMDxBAjQ8S1ygQggMCJAgEaEfI4AAm8JECCZQACBxxMgQI9voQ0gsJ0AAdqO3IIIIJBNgABlE1UPgdcnQIBev8d2iMDLEyBAL99iG0QgnQABSkeqIAII7CZAgHYTtx4CzydAgJ7fQztAoD0BAtQ+AgAgcJkAAbqMzAQEEDiNAAE6rSOuB4HzCRCg83vkChFAYECAAIkIAghcJUCArhIzHgEEjiNAgI5riQtC4HgCBOj4FrlABBAYESBAI0I+RwCBtwQIkEwggMDjCRCgx7fQBhDYToAAbUduQQQQyCYQEaB3777OXvbf1vv++z9vW8tCCCAwR2DnM+HzDx++/Ti6zK++/P1oiM8RQACBTwgQIIFAAIGrBAjQVWLGI4DAcQQI0HEtcUEIHE+AAB3fIheIAAIjAgRoRMjnCCDwlgABkgkEEHg8AQL0+BbaAALbCRCg7cgtiAAC2QQIUDZR9RB4fQIE6PV7bIcIvDwBAvTyLbZBBNIJEKB0pAoigMBuAgRoN3HrIfB8AgTo+T20AwTaEyBA7SMAAAKXCRCgy8hMQACB0wgQoNM64noQOJ8AATq/R64QAQQGBAiQiCCAwFUCBOgqMeMRQOA4AgTouJa4IASOJ0CAjm+RC0QAgREBAjQi5HMEEHhLgADJBAIIPJ4AAXp8C20Age0ECNB25BZEAIFsAgQom6h6CLw+AQL0+j22QwRengABevkW2yAC6QQIUDpSBRFAYDcBArSbuPUQeD4BAvT8HtoBAu0JEKD2EQAAgcsECNBlZCYggMBpBAjQaR1xPQicT4AAnd8jV4gAAgMCBEhEEEDgKgECdJWY8QggcBwBAnRcS1wQAscTIEDHt8gFIoDAiAABGhHyOQIIvCVAgGQCAQQeT4AAPb6FNoDAdgIEaDtyCyKAQDYBApRNVD0EXp8AAXr9HtshAi9PgAC9fIttEIF0AgQoHamCCCCwmwAB2k3cegg8nwABen4P7QCB9gQIUPsIAIDAZQIE6DIyExBA4DQCBOi0jrgeBM4nQIDO75ErRACBAQECJCIIIHCVAAG6Ssx4BBA4jgABOq4lLgiB4wkQoONb5AIRQGBEgACNCPkcAQTeEiBAMoEAAo8nQIAe30IbQGA7AQK0HbkFEUAgm0BEgN6//yZ72X9b77vvPmxby0IIIDBHYOcz4fMPH779OLrMr778/WiIzxFAAIFPCBAggUAAgasECNBVYsYjgMBxBAjQcS1xQQgcT4AAHd8iF4gAAiMCBGhEyOcIIPCWAAGSCQQQeDwBAvT4FtoAAtsJEKDtyC2IAALZBAhQNlH1EHh9AgTo9Xtshwi8PAEC9PIttkEE0gkQoHSkCiKAwG4CBGg3cesh8HwCBOj5PbQDBNoTIEDtIwAAApcJEKDLyExAAIHTCBCg0zriehA4nwABOr9HrhABBAYECJCIIIDAVQIE6Cox4xFA4DgCBOi4lrggBI4nQICOb5ELRACBEQECNCLkcwQQeEuAAMkEAgg8ngABenwLbQCB7QQI0HbkFkQAgWwCBCibqHoIvD4BAvT6PbZDBF6eAAF6+RbbIALpBAhQOlIFEUBgNwECtJu49RB4PgEC9Pwe2gEC7QkQoPYRAACBywQI0GVkJiCAwGkECNBpHXE9CJxPgACd3yNXiAACAwIESEQQQOAqAQJ0lZjxCCBwHAECdFxLXBACxxMgQMe3yAUigMCIAAEaEfI5Agi8JUCAZAIBBB5PgAA9voU2gMB2AgRoO3ILIoBANgEClE1UPQRenwABev0e2yECL0+AAL18i20QgXQCBCgdqYIIILCbAAHaTdx6CDyfAAF6fg/tAIH2BAhQ+wgAgMBlAgToMjITEEDgNAIE6LSOuB4EzidAgM7vkStEAIEBAQIkIgggcJUAAbpKzHgEEDiOAAE6riUuCIHjCRCg41vkAhFAYESAAI0I+RwBBN4SIEAygQACjydAgB7fQhtAYDsBArQduQURQCCbQESA3r37OnvZf1vv++//vG0tCyGAwByBnc+Ezz98+Pbj6DK/+vL3oyE+RwABBD4hQIAEAgEErhIgQFeJGY8AAscRIEDHtcQFIXA8AQJ0fItcIAIIjAgQoBEhnyOAwFsCBEgmEEDg8QQI0ONbaAMIbCdAgLYjtyACCGQTIEDZRNVD4PUJEKDX77EdIvDyBAjQy7fYBhFIJ0CA0pEqiAACuwkQoN3ErYfA8wkQoOf30A4QaE+AALWPAAAIXCZAgC4jMwEBBE4jQIBO64jrQeB8AgTo/B65QgQQGBAgQCKCAAJXCRCgq8SMRwCB4wgQoONa4oIQOJ4AATq+RS4QAQRGBAjQiJDPEUDgLQECJBMIIPB4AgTo8S20AQS2EyBA25FbEAEEsgkQoGyi6iHw+gQI0Ov32A4ReHkCBOjlW2yDCKQTIEDpSBVEAIHdBAjQbuLWQ+D5BAjQ83toBwi0J0CA2kcAAAQuEyBAl5GZgAACpxEgQKd1xPUgcD4BAnR+j1whAggMCBAgEUEAgasECNBVYsYjgMBxBAjQcS1xQQgcT4AAHd8iF4gAAiMCBGhEyOcIIPCWAAGSCQQQeDwBAvT4FtoAAtsJEKDtyC2IAALZBAhQNlH1EHh9AgTo9Xtshwi8PAEC9PIttkEE0gkQoHSkCiKAwG4CBGg3cesh8HwCBOj5PbQDBNoTIEDtIwAAApcJEKDLyExAAIHTCBCg0zriehA4nwABOr9HrhABBAYECJCIIIDAVQIE6Cox4xFA4DgCBOi4lrggBI4nQICOb5ELRACBEQECNCLkcwQQeEuAAMkEAgg8ngABenwLbQCB7QQI0HbkFkQAgWwCEQF6//6b7GX/bb3vvvuwbS0LIYDAHIGdz4TPP3z49uPoMr/68vejIT5HAAEEPiFAgAQCAQSuEiBAV4kZjwACxxEgQMe1xAUhcDwBAnR8i1wgAgiMCBCgESGfI4DAWwIESCYQQODxBAjQ41toAwhsJ0CAtiO3IAIIZBMgQNlE1UPg9QkQoNfvsR0i8PIECNDLt9gGEUgnQIDSkSqIAAK7CRCg3cSth8DzCRCg5/fQDhBoT4AAtY8AAAhcJkCALiMzAQEETiNAgE7riOtB4HwCBOj8HrlCBBAYECBAIoIAAlcJEKCrxIxHAIHjCBCg41righA4ngABOr5FLhABBEYECNCIkM8RQOAtAQIkEwgg8HgCBOjxLbQBBLYTIEDbkVsQAQSyCRCgbKLqIfD6BAjQ6/fYDhF4eQIE6OVbbIMIpBMgQOlIFUQAgd0ECNBu4tZD4PkECNDze2gHCLQnQIDaRwAABC4TIECXkZmAAAKnESBAp3XE9SBwPgECdH6PXCECCAwIECARQQCBqwQI0FVixiOAwHEECNBxLXFBCBxPgAAd3yIXiAACIwIEaETI5wgg8JYAAZIJBBB4PAEC9PgW2gAC2wkQoO3ILYgAAtkECFA2UfUQeH0CBOj1e2yHCLw8AQL08i22QQTSCRCgdKQKIoDAbgIEaDdx6yHwfAIE6Pk9tAME2hMgQO0jAAAClwkQoMvITEAAgdMIEKDTOuJ6EDifAAE6v0euEAEEBgQIkIgggMBVAgToKjHjEUDgOAIE6LiWuCAEjidAgI5vkQtEAIERAQI0IuRzBBB4S4AAyQQCCDyeAAF6fAttAIHtBAjQduQWRACBbAIRAXr37uvsZf9tve+///O2tSyEAAJzBHY+Ez7/8OHbj6PL/OrL34+G+BwBBBD4hAABEggEELhKgABdJWY8AggcR4AAHdcSF4TA8QQI0PEtcoEIIDAiQIBGhHyOAAJvCRAgmUAAgccTIECPb6ENILCdAAHajtyCCCCQTYAAZRNVD4HXJ0CAXr/HdojAyxMgQC/fYhtEIJ0AAUpHqiACCOwmQIB2E7ceAs8nQICe30M7QKA9AQLUPgIAIHCZAAG6jMwEBBA4jQABOq0jrgeB8wkQoPN75AoRQGBAgACJCAIIXCVAgK4SMx4BBI4jQICOa4kLQuB4AgTo+Ba5QAQQGBEgQCNCPkcAgbcECJBMIIDA4wkQoMe30AYQ2E6AAG1HbkEEEMgmQICyiaqHwOsTIECv32M7RODlCRCgl2+xDSKQToAApSNVEAEEdhMgQLuJWw+B5xMgQM/voR0g0J4AAWofAQAQuEyAAF1GZgICCJxGgACd1hHXg8D5BAjQ+T1yhQggMCBAgEQEAQSuEiBAV4kZjwACxxEgQMe1xAUhcDwBAnR8i1wgAgiMCBCgESGfI4DAWwIESCYQQODxBAjQ41toAwhsJ0CAtiO3IAIIZBMgQNlE1UPg9QkQoNfvsR0i8PIECNDLt9gGEUgnQIDSkSqIAAK7CRCg3cSth8DzCRCg5/fQDhBoT4AAtY8AAAhcJkCALiMzAQEETiNAgE7riOtB4HwCBOj8HrlCBBAYECBAIoIAAlcJEKCrxIxHAIHjCBCg41righA4ngABOr5FLhABBEYECNCIkM8RQOAtAQIkEwgg8HgCBOjxLbQBBLYTIEDbkVsQAQSyCUQE6P37b7KX/bf1vvvuw7a1LIQAAnMEdj4TPv/w4duPo8v86svfj4b4HAEEEPiEAAESCAQQuEqAAF0lZjwCCBxHgAAd1xIXhMDxBAjQ8S1ygQggMCJAgEaEfI4AAm8JECCZQACBxxMgQI9voQ0gsJ0AAdqO3IIIIJBNICJAkTVXPhB/+OGHyCUsG/PFF18sqx0pbP/6H8nJqjEr8x/5owe/BL2qs+oi0JwAARoHYOUBMF79s88IEAGK5GTVmJX5J0CruqYuAggMCRCgIaLPVh4A49UJEAF8XQEkQJEngDEIILCEAAEaYyVAfgQ4Tsm6Ea8sgARoXW5URgCBAQECNI4IASJA45SsG0GAfBHiunSpjEBjAgRo3HwCRIDGKVk3ggARoHXpUhmBxgQI0Lj5BIgAjVOybgQBIkDr0qUyAo0JEKBx8wkQARqnZN0IAkSA1qVLZQQaEyBA4+YTIAI0Tsm6EQQoIEAR/P6HqRFKxiDwGgSy5CaLxuyXJb7yARBha/+v+2fgr9z/yF94RfYf+iLESCECFKFkDAKvQYAA5fTRGyBvgHKSNFflqQJMgOb6bRYCCCQQIEAJEP+zBAEiQDlJmqtCgPwIbC45ZiHQmAABymk+ASJAOUmaq0KACNBccsxCoDEBApTTfAJEgHKSNFeFABGgueSYhUBjAgQop/kEiADlJGmuCgEiQHPJMQuBxgQIUE7zCRAByknSXBUCRIDmkmMWAo0JEKCc5hMgApSTpLkqBIgAzSXHLAQaEyBAOc0nQAQoJ0lzVQhQkgDN4TcLAQQQ2EPgl74s8akHQBYx+/dFiFlZmqnzS/8AyPqOn8j1pH0RYmQxYxBAAIEqAgTo5+QJEAGquh//a10CVEnf2ggg0IYAASJAbwkQwPME0BugNo9kG0UAgV0ECBABIkCfEjhRAAnQrieidRBAoA0BAkSACBAB+ikBvwPU5vFvowj0JkCACBABIkAEqPc5YPcItCRAgAgQASJABKjl49+mEehNgAARIAJEgAhQ73PA7hFoSYAAESACRIA+EaD/+OtfPrZ8Gto0AgiUE/jb3/+Rcg3ff//nYZ13777+2RjfxOybmIfBWTjgxL/CWrjdn5X+pf3P3ssz1/05AZrBZg4CCGQQIEDnfQ9LRl+jNQiA/r/NCgGK3j3GIYDAowkQIAdgZYC9ATzvDSABqrwjrI0AAtsIECACtC1sv7AQASJAfgeo8g60NgKNCRAgAlQZfwJEgAhQ5R1obQQaEyBABKgy/gSIABGgyjvQ2gg0JkCACFBl/AkQASJAlXegtRFoTIAAEaDK+BMgAkSAKu9AayPQmAABIkCV8SdABGgoQP/jf/6vyoxaGwEEHkjgT3/8w/CqIwK08s9iHYDnHYDD0CQO0P9n9j/rmRD6IkQClHjHKYVAEwIEaNxoXwToDdg4JetGPFUACdC6TKiMAAIJBAjQGCIBIkDjlKwbQYAC/y8wb4DWBVBlBF6VAAEad5YAEaBxStaNIEAEaF26VEagMQECNG4+ASJA45SsG0GACNC6dKmMQGMCBGjcfAJEgMYpWTeCABGgdelSGYHGBAjQuPkEiACNU7JuBAEiQOvSpTICjQkQoHHzCRABGqdk3QgCRIDWpUtlBBoTIEDj5hMgAjROyboRBChJgCIPu3VtVBkBBHYSiPxlaOSZEKnz7t3Xy7b21AMgC4j9P/OLAPV/TCDyXUFpX4QYediNL9kIBBB4AoGIuESeCZE6BGhdIggQAVqXrnHllW9ACdCYvxEIIDBBICIuBGgMduUBMF79s88IEAGK5GTVmJX5J0CruqYuAs0JEKCcAKw8ACJXSIAIUCQnq8aszD8BWtU1dRFoToAA5QRg5QEQuUICRIAiOVk1ZmX+CdCqrqmLQHMCBCgnACsPgMgVEiACFMnJqjEr80+AVnVNXQSaEyBAOQFYeQBErpAAEaBITlaNWZl/ArSqa+oi0JwAAcoJwMoDIHKFBIgARXKyaszK/BOgVV1TF4HmBAhQTgBWHgCRKyRABCiSk1VjVuafAK3qmroINCeQJUB/+/s/SkkSAAJQGcCVAhDZV/f8+yLESEqMQQCBTwgQoJxAOAD9rzBykjRXhQD5X2HMJccsBBoTIEA5zSdABCgnSXNVCBABmkuOWQg0JkCAcppPgAhQTpLmqhAgAjSXHLMQaEyAAOU0nwARoJwkzVUhQARoLjlmIdCYQJYA/ea3vyulSEAISGUAuwtI9f79EnRl+q2NwEMJEKCcxlUfAASQAOYkea5Kdf4J0FzfzEKgNQEClNP+6gOAABGgnCTPVanOPwGa65tZCLQmQIBy2l99ABAgApST5Lkq1fknQHN9MwuB1gQIUE77qw8AAkSAcpI8V6U6/wRorm9mIdCaAAHKaX/1AUCACFBOkueqVOefAM31zSwEWhMgQDntrz4ACBAByknyXJXq/BOgub6ZhUBrAgQop/3VBwABIkA5SZ6rUp1/AjTXN7MQaE2AAOW0v/oAIEAEKCfJc1Wq80+A5vpmFgKtCRCgnPZXHwAEiADlJHmuSnX+CdBc38xCoDUBApTT/uoDgAARoJwkz1Wpzj8BmuubWQi0JkCActpffQAQIAKUk+S5KtX5J0BzfTMLgdYECFBO+6sPAAJEgHKSPFelOv8EaK5vZiHQmgAByml/9QFAgAhQTpLnqlTnnwDN9c0sBFoTIEA57a8+AAgQAcpJ8lyV6vwToLm+mYVAawIEKKf91QcAASJAOUmeq1KdfwI01zezEGhNgADltL/6ACBABCgnyXNVqvNPgOb6ZhYCrQkQoJz2Vx8ABIgA5SR5rkp1/gnQXN/MQqA1AQKU0/7qA4AAEaCcJM9Vqc4/AZrrm1kItCZAgHLaX30AECAClJPkuSrV+SdAc30zC4HWBAhQTvurDwACRIBykjxXpTr/BGiub2Yh0JoAAcppf/UBQIAIUE6S56pU558AzfXNLARaEyBAOe2vPgAIEAHKSfJcler8E6C5vpmFQGsCBCin/dUHAAEiQDlJnqtSnX8CNNc3sxBoTYAA5bS/+gAgQAQoJ8lzVarzT4Dm+mYWAq0JEKCc9lcfAASIAOUkea5Kdf4J0FzfzEKgNQEClNP+6gOAABGgnCTPVanOPwGa65tZCLQmQIBy2l99ABAgApST5Lkq1fknQHN9MwuB1gQIUE77qw8AAkSAcpI8V6U6/wRorm9mIdCaAAHKaX/1AUCACFBOkueqVOefAM31zSwEWhMgQDntrz4ACBAByknyXJXq/BOgub6ZhUBrAgQop/3VBwABIkA5SZ6rUp1/AjTXN7MQaE0gS4D+9vd/lHKsfgATEAJSeQN0zz8BqkyftRF4KAEClNM4AkSAcpI0V4UA/fUvH0fosh52o3V8jgACzyCQ9UzwBogAVCa+uwB03783QJV3n7UReCgBApTTOG+ACGBOkuaqECBvgOaSYxYCjQkQoJzmEyAClJOkuSoEiADNJccsBBoTIEA5zSdABCgnSXNVCBABmkuOWQg0JkCAcppPgAhQTpLmqhAgAjSXHLMQaEyAAOU0nwARoJwkzVUhQARoLjlmIdCYAAHKaT4BIkA5SZqrQoAI0FxyzEKgMQEClNN8AkSAcpI0V4UAEaC55JiFQGMCBCin+QSIAOUkaa4KASJAc8kxC4HGBAhQTvMJEAHKSdJcFQJEgOaSYxYCjQkQoJzmEyAClJOkuSoEiADNJccsBBoTIEA5zSdABCgnSXNVCBABmkuOWQg0JkCAcppPgAhQTpLmqhAgAjSXHLMQaEyAAOU0nwARoJwkzVUhQARoLjlmIdCYAAHKaT4BIkA5SZqrQoAI0FxyzEKgMQEClNN8AkSAcpI0V4UAEaC55JiFQGMCBCin+QSIAOUkaa4KAbOCx/wAACAASURBVCJAc8kxC4HGBAhQTvMJEAHKSdJcFQJEgOaSYxYCjQkQoJzmEyAClJOkuSoEiADNJccsBBoTIEA5zSdABCgnSXNVCBABmkuOWQg0JkCAcppPgAhQTpLmqhAgAjSXHLMQaEyAAOU0nwARoJwkzVUhQARoLjlmIdCYAAHKaT4BIkA5SZqrQoAI0FxyzEKgMQEClNN8AkSAcpI0V4UAEaC55JiFQGMCBCin+QSIAOUkaa4KASJAc8kxC4HGBAhQTvMJEAHKSdJcFQJEgOaSYxYCjQkQoJzmEyAClJOkuSoEiADNJccsBBoTIEA5zSdABCgnSXNVCBABmkuOWQg0JkCAcppPgAhQTpLmqhAgAjSXHLMQaEyAAOU0nwARoJwkzVUhQARoLjlmIdCYQJYA/ea3vyulSEAISGUAuwtI9f4//w8CVJl/ayPwSAIEKKdt1QcAASSAOUmeq1KdfwI01zezEGhNgADltL/6ACBABCgnyXNVqvNPgOb6ZhYCrQkQoJz2Vx8ABIgA5SR5rkp1/gnQXN/MQqA1AQKU0/7qA4AAEaCcJM9Vqc4/AZrrm1kItCZAgHLaX30AECAClJPkuSrV+SdAc30zC4HWBAhQTvurDwACRIBykjxXpTr/BGiub2Yh0JoAAcppf/UBQIAIUE6S56pU558AzfXNLARaEyBAOe2vPgAIEAHKSfJcler8E6C5vpmFQGsCBCin/dUHAAEiQDlJnqtSnX8CNNc3sxBoTYAA5bS/+gAgQAQoJ8lzVarzT4Dm+mYWAq0JEKCc9lcfAASIAOUkea5Kdf4J0FzfWsyKHHIREH/64x8iw4x5EIFINiJ99/8C+6K06wSIAFUGkABV0rf2rxKIHHIRhJGDMFLHmHMIRLIR6TsBIkCVqSaAvQXQG6DKu+/wtSOHXGQLkYMwUseYcwhEshHpOwEiQJWpJkAE6OMogFkPu9E6Pj+LQKTvkSuOHISROsacQyCSjUjfCRABqkw1ASJABKjyDjx47cghF7n8yEEYqWPMOQQi2Yj0nQARoMpUEyACRIAq78CD144ccpHLjxyEkTrGnEMgko1I3wkQAapMNQEiQASo8g48eO3IIRe5/MhBGKljzDkEItmI9J0AEaDKVBMgAkSAKu/Ag9eOHHKRy48chJE6xpxDIJKNSN8JEAGqTDUBIkAEqPIOPHjtyCEXufzIQRipY8w5BCLZiPSdABGgylQTIAJEgCrvwKK1IwfYV1/+PuXq/vf/+b/DOpHDcljEgG0EIvmJ9JQAEaBtof2FhQgQASJAlXdg0dqRA4wAFTXnActG8kOAxo2s/iZcAtBbALr33xchjp9RLzkicoARoJdsfcqmIvkhQGPUBMgbsHFK1o0gQH/9izdA6/J1bOXIAUaAjm1f+YVF8kOAxm0iQARonJJ1IwgQAVqXroMrRw4wAnRwA4svLZIfAjRuEgEiQOOUrBtBgAjQunQdXDlygBGggxtYfGmR/BCgcZMIEAEap2TdCAJEgNal6+DKkQOMAB3cwOJLi+SHAI2bRIAI0Dgl60YQIAK0Ll0HV44cYATo4AYWX1okPwRo3CQCRIDGKVk3ggARoHXpOrhy5AAjQAc3sPjSIvkhQOMmESACNE7JuhEEiACtS1dR5cjhlCU3WVv0ZYlZJPfUiWSMAI17QYAI0Dgl60YQIAK0Ll1FlSOHEwEqas6LLBvJGAEaN5sAEaBxStaNIEAEaF26iipHDicCVNScF1k2krGIAP3t7/8oJUJACEhlALsLSPX+fRN0ZfoXrR05nAjQIvhNykYyRoDGYag+AAggARyndN2I6vwToHW9LascOZwIUFl7XmLhSMYI0LjV1QcAASJA45SuG1GdfwK0rrdllSOHEwEqa89LLBzJGAEat7r6ACBABGic0nUjqvNPgNb1tqxy5HAiQGXteYmFIxkjQONWVx8ABIgAjVO6bkR1/gnQut6WVY4cTgSorD0vsXAkYwRo3OrqA4AAEaBxSteNqM4/AVrX27LKkcOJAJW15yUWjmSMAI1bXX0AECACNE7puhHV+SdA63q7pHLk4DlNbrJA+LLELJL360RySIDGnKsPAAJEgMYpXTeiOv8EaF1vl1SOHDwEaAl6RX9CIJJDAjSOTPUBQIAI0Dil60ZU558ArevtksqRg4cALUGvKAFKz0D1AUCACFB6qC8UrM4/AbrQrBOGEqBf70LkrcMJfXz6NURyGOmFb4L+oTQKBIgAVQaQAFXSf+DakYPHG6AHNvZhlxzJIQEaN7X6ACBABGic0nUjqvPvDdC63i6pHDl4CNAS9Ir6EVh6BqoPAAJEgNJDfaFgdf4J0IVmnTCUAPkR2FNy6A3QuFPVBwABIkDjlK4bUZ1/ArSut0sqEyACtCRYF4tGckiAxlCrDwACRIDGKV03ojr/BGhdb5dUjhw8fgS2BL2ifgSWnoHqA4AAEaD0UF8oWJ1/AnShWauHniY3kS8ejDDZKWSRa468mYjsq/OYSFYjnP0VmL8Cq7yPCGBvASRAlXffm7Ujh8ppMhHBd9o1Rw7myL46j4lkNcKZABGgyvuIABGgj6MAZj3sRut0/zzC+TSZiPTstGuOHMyRfXUeE8lqhDMBIkCV9xEBIkAEqPIOvPh7FafJRATdadccOZgj++o8hgDldL/6dyAIQG8B6N5/PwLLeY6lVIkcKqfJRGTjp10zAYp07dfHRLIa4ewNkDdA99M4X6G7AHTfPwGav3fSZ0YOldNkIgLhtGuOHMyRfXUeE8lqhDMBIkCV91F3Aei+fwJUeff5Jeh0+v4KLB3pLxYkQDmc/QiMAOYkaa4KAfrrX/wO0Fx20mdFDpXT3qZEIJx2zZE3E5F9dR4TyWqEszdABKDyPuouAN337w1Q5d3nDVA6fW+A0pF6A7QQqTdABHBhvIalCZA3QMOQZAyI/Iv5Vd+UdN57RnZOrBHpqTdA484RIAI0Tsm6EQSIAK1L108qRw4MArSlFZ95S3SfcyTPBGjMmQARoHFK1o0gQARoXboI0H8TiByWryp/W8JVsEikpwRo3BgCRIDGKVk3ggARoHXpIkAEaEu69i9CgHKYEyAClJOkuSoEiADNJefirMiB8apvQTrv/WJMHjM80lNvgMbtJEAEaJySdSMIEAFaly5vgLwB2pKu/YsQoBzmBIgA5SRprgoBIkBzybk4K3JgeAN0EerkcL8EPQnuotB7AzTmTIAI0Dgl60YQIAK0Ll0XDwwCtKUV/gosAXNE6CMC9Jvf/i7hauZLEBACMp+e+zO7C0j1/n0R4v0MhypEDgwCFEJ5e5A3QLcRhv6yjwCNOVcfAASQAI5Tum5Edf4JUEJvO8tNAr7/LoFhFsk9dSL9IkDjXlQfAASIAI1Tum5Edf4JUEJvI4fBq77dScBHgLIgbqwTyTwBGjek+gAgQARonNJ1I6rzT4ASehs5DAjQr4PGMCGIG0tE+kWAxg2pPgAIEAEap3TdiOr8E6CE3kYOAwJEgBKidkyJSOYJ0Lhd1QcAASJA45SuG1GdfwKU0NvIYUCACFBC1I4pEck8ARq3q/oAIEAEaJzSdSOq80+AEnobOQwIEAFKiNoxJSKZJ0DjdlUfAASIAI1Tum5Edf4JUEJvI4cBASJACVE7pkQk8wRo3K7qA4AAEaBxSteNqM4/AUrobeQwIEAEKCFqx5SIZJ4AjdtVfQAQIAI0Tum6EdX5J0AJvY0cBgSIACVE7ZgSkcwToHG7qg8AAkSAxildN6I6/wRoXW8/qRw5MCKS1PlbjDHcFNbAMpFeEKAxyOoDgAARoHFK142ozj8BWtdbApTMNnLokshk6P+mXKQXBGjci+oDgAARoHFK142ozj8BWtdbApTMNnLoEqBk6ARoKdDqA4AAEaClAR8Ur84/AdrUfYf3fdAY3meYVSHSC2+AxrSrDwACRIDGKV03ojr/BGhdb70BSmYbOXS9AUqG7g3QUqDVBwABIkBLA+4NUCXec9Z2eN/vBYb3GWZViPTCG6AxbQL0xRjSwhEEsLcAegO08Ob6aenIgeHtxa83A8NNYQ0sE+kFARqDJEAEaJySdSO6CyABWpctPwJLZhs5dElkMnQ/AlsKlAARoKUBGxQnQH/9y8dRAyIHT+Rfe6N1XvnzCEOHtzdAT7kHInmOPBN+89vflW65+wFg/71/BNS9/94AlT5+P10861A5aEvbLwXDPcizOBMgb0D2JPaXV+kuAN33T4Aq7743a2cdKgdtafulYLgHeRZnAkSA9iSWAP0SAQLkR2CV99/l3xOK/FjhmA0VXEjWwVxw6Y9aMoszASJAlcHvLgDd9+8NUOXd5w1QOv2sgzn9wl6sYBZnAkSAKm+N7gLQff8EqPLuI0Dp9LMO5vQLe7GCWZwJEAGqvDW6C0D3/ROgyruPAKXTzzqY0y/sxQpmcSZABKjy1uguAN33T4Aq7z4ClE4/62BOv7AXK5jFmQARoMpbo7sAdN8/Aaq8+whQOv2sgzn9wl6sYBZnAkSAKm+N7gLQff8EqPLuI0Dp9LMO5vQLe7GCWZwJEAGqvDW6C0D3/ROgyrvP2gg8lAABymmc/xUGAcxJ0lwVAuR7gOaSYxYCjQkQoJzmEyAClJOkuSoEiADNJccsBBoTIEA5zSdABCgnSXNVCBABmkuOWQg0JpAlQH/7+z9KKRIQAlIZwO4CUr1/vwNUmX5rI/BQAgQop3HVBwABJIA5SZ6rUp1/AjTXN7MQaE2AAOW0v/oAIEAEKCfJc1Wq80+A5vpmFgKtCRCgnPZXHwAEiADlJHmuSnX+CdBc38xCoDUBApTT/uoDgAARoJwkz1Wpzj8BmuubWQi0JkCActpffQAQIAKUk+S5KtX5J0BzfTMLgdYECFBO+6sPAAJEgHKSPFelOv8EaK5vZiHQmgAByml/9QFAgAhQTpLnqlTnnwDN9c0sBFoTIEA57a8+AAgQAcpJ8lyV6vwToLm+mYVAawIEKKf91QcAASJAOUmeq1KdfwI01zezEGhNgADltL/6ACBABCgnyXNVqvNPgOb6ZhYCrQkQoJz2Vx8ABIgA5SR5rkp1/gnQXN/MQqA1AQKU0/7qA4AAEaCcJM9Vqc4/AZrrm1kItCZAgHLaX30AECAClJPkuSrV+SdAc30zC4HWBAhQTvurDwACRIBykjxXpTr/BGiub2Yh0JoAAcppf/UBQIAIUE6S56pU558AzfXNLARaEyBAOe2vPgAIEAHKSfJcler8E6C5vpmFQGsCBCin/dUHAAEiQDlJnqtSnX8CNNc3sxBoTYAA5bS/+gAgQAQoJ8lzVarzT4Dm+mYWAq0JEKCc9lcfAASIAOUkea5Kdf4J0FzfzEKgNQEClNP+6gOAABGgnCTPVanOPwGa65tZCLQmQIBy2l99ABAgApST5Lkq1fknQHN9MwuB1gQIUE77qw8AAkSAcpI8V6U6/wRorm9mIdCaAAHKaX/1AUCACFBOkueqVOefAM31zSwEWhMgQDntrz4ACBAByknyXJXq/BOgub6ZhUBrAgQop/3VBwABIkA5SZ6rUp1/AjTXN7MQaE2AAOW0v/oAIEAEKCfJc1Wq80+A5vpmFgKtCRCgnPZXHwAEiADlJHmuSnX+CdBc38xCoDUBApTT/uoDgAARoJwkz1Wpzj8BmuubWQi0JkCActpffQAQIAKUk+S5KtX5J0BzfTMLgdYECFBO+6sPAAJEgHKSPFelOv8EaK5vZiHQmgAByml/9QFAgAhQTpLnqlTnnwDN9c0sBFoTyBKg3/z2d6Ucqx/ABISAVN4A3fNPgCrTZ20EHkqAAOU0jgARoJwkzVUhQH/9y8cRuqyH3WgdnyOAwDMIZD0TvAEiAJWJ7y4A3ffvDVDl3WdtBB5KgADlNM4bIAKYk6S5KgTIG6C55JiFQGMCBCin+QSIAOUkaa4KASJAc8kxC4HGBAhQTvMJEAHKSdJcFQJEgOaSYxYCjQkQoJzmEyAClJOkuSoEiADNJccsBBoTIEA5zSdABCgnSXNVCBABmkuOWQg0JkCAcppPgAhQTpLmqhAgAjSXHLMQaEyAAOU0nwARoJwkzVUhQARoLjlmIdCYAAHKaT4BIkA5SZqrQoAI0FxyzEKgMQEClNN8AkSAcpI0V4UAEaC55JiFQGMCBCin+QSIAOUkaa4KASJAc8kxC4HGBAhQTvMJEAHKSdJcFQJEgOaSYxYCjQkQoJzmEyAClJOkuSoEiADNJccsBBoTIEA5zSdABCgnSXNVCBABmkuOWQg0JkCAcppPgAhQTpLmqhAgAjSXHLMQaEyAAOU0nwARoJwkzVUhQARoLjlmIdCYAAHKaT4BIkA5SZqrQoAI0FxyzEKgMQEClNN8AkSAcpI0V4UAEaC55JiFQGMCBCin+QSIAOUkaa4KASJAc8kxC4HGBAhQTvMJEAHKSdJcFQJEgOaSYxYCjQkQoJzmEyAClJOkuSoEiADNJccsBBoTIEA5zSdABCgnSXNVCBABmkuOWQg0JkCAcppPgAhQTpLmqhAgAjSXHLMQaEyAAOU0nwARoJwkzVUhQARoLjlmIdCYAAHKaT4BIkA5SZqrQoAI0FxyzEKgMQEClNN8AkSAcpI0V4UAEaC55JiFQGMCBCin+QSIAOUkaa4KASJAc8kxC4HGBAhQTvMJEAHKSdJcFQJEgOaSYxYCjQkQoJzmEyAClJOkuSoEiADNJccsBBoTIEA5zSdABCgnSXNVCBABmkuOWQg0JpAlQH/7+z9KKRIQAlIZwO4CUr3/z/+DAFXm39oIPJIAAcppW/UBQAAJYE6S56pU558AzfXNLARaEyBAOe2vPgAIEAHKSfJcler8E6C5vpmFQGsCBCin/dUHAAEiQDlJnqtSnX8CNNc3sxBoTYAA5bS/+gAgQAQoJ8lzVarzT4Dm+mYWAq0JZAlQpM67d18vY00ACMCycAUKVwvAK+f/++//POwAARoiMgABBN4SiIjLn/74hyG4SB0CNMQ4PeCVD8AIFPt/XQEmQJE7wBgEELhMICIuBGiM1RuAH8aQFo4gQATo4yhfWQ+70To+RwCBZxDIeiZE6ngDtC4TBOB1BSCSmlfuvzdAkQQYgwAClwlExMUboDFWb4C8ARqnZN0IAuSLENelS2UEXpQAAcppLAEiQDlJmqtCgAjQXHLMQqAxAQKU03wCRIBykjRXhQARoLnkmIVAYwIEKKf5BIgA5SRprgoBIkBzyTELgcYECFBO8wkQAcpJ0lwVApQkQHP4zUIAgVclEPkl6Mj/DT7y1xyzfyn2ygdAJFf276/AIjlZNWb2HwBZz4S0L0JcBUhdBBB4JgECNO7b7AEwrhwbQYAIUCwpa0bN5p8AremHqgggkESAAI1Bzh4A48qxEQSIAMWSsmbUbP4J0Jp+qIoAAkkECNAY5OwBMK4cG0GACFAsKWtGzeafAK3ph6oIIJBEgACNQc4eAOPKsREEiADFkrJm1Gz+CdCafqiKAAJJBAjQGOTsATCuHBtBgAhQLClrRs3mnwCt6YeqCCCQRIAAjUHOHgDjyrERBIgAxZKyZtRs/gnQmn6oigACSQQI0Bjk7AEwrhwbQYAIUCwpa0bN5p8AremHqgggkESAAI1Bzh4A48qxEQSIAMWSsmbUbP63CtCarauKAALdCUS+CDHCaPaBSAAIQCRfq8bMCkDW9ZyY/9l7eYZJ6IsQZwqbgwACCIwIECD/K4hRRlZ+fqIArNzv29on7p8A7UyAtRBAoIwAASJAZeH7z4VPFICdPE7cPwHamQBrIYBAGQECRIDKwkeAjhRAAlR5R1gbAQS2ESBABGhb2H5hoRPfgOzkceL+CdDOBFgLAQTKCBAgAlQWPm+AvAH6j7/+5WNlAK2NAAJ9CRAgAlSZ/hPfgOzkceL+vQHamQBrIYBAGQECRIDKwucNkDdA3gBV3n7WRqA3AQJEgCrvgBPfgOzkceL+t74B+vDhWz8C25k4ayGAwL8IvH//TSkNX0RHwCoDeKKA7ORRvf/PCdDOdlsLAQR+SoAA+SbmyjuCAPcWYAJUefdZG4HmBAgQAaq8BQgQAfIjsMo70NoINCZAgAhQZfwJEAEiQJV3oLURaEyAABGgyvgTIAJEgCrvQGsj0JgAASJAlfEnQASIAFXegdZGoDEBAkSAKuNPgAgQAaq8A62NQGMCBIgAVcafABEgAlR5B1obgcYECBABqow/ASJAQwH60x//UJlRayOAwAMJ/I//+b+GV02ACNAwJAsHECACRIAW3mBKI9CVAAEad776m3AJQG8B6N7/0BchegM0fpAZgQACnxIgQONEECBvwMYpWTeCAAX+X2AEaF0AVUbgVQkQoHFnCRABGqdk3QgCRIDWpUtlBBoTIEDj5hMgAjROyboRBIgArUuXygg0JkCAxs0nQARonJJ1IwgQAVqXLpURaEyAAI2bT4AI0Dgl60YQIAK0Ll0qI9CYAAEaN58AEaBxStaNIEAEaF26VEagMQECNG4+ASJA45SsG0GAkgQo8rBb10aVEUBgJ4HIX4ZGngm+CJEA7Mzt27W6C0D3/ad9D1DkYVcZdGsjgEAeAQKUw9IbIAKYk6S5KgTIG6C55JiFQGMCBCin+QSIAOUkaa4KASJAc8kxC4HGBAhQTvMJEAHKSdJcFQJEgOaSYxYCjQkQoJzmEyAClJOkuSoEiADNJccsBBoTIEA5zSdABCgnSXNVCBABmkuOWQg0JkCAcppPgAhQTpLmqhAgAjSXHLMQaEyAAOU0nwARoJwkzVUhQARoLjlmIdCYAAHKaT4BIkA5SZqrQoA2ClDkoRlpY+Q7h7LWilyPMQisJrAz81lrRer4IkQCsPre+bX63QWg+/63fhFilpREHqxZa1XenNZG4EcCOzOftVakDgEiQJV3eXcB6L5/AlR591kbgSCBiExkSX/WWpE6BIgABW+BJcO6C0D3/ROgJbeVogjkEojIBAG6zrz7AWD/P1wPTeIMvwNW+w8AApQYZqUQWEWAAK0hSwAIwJpkxaoSIAIUS8pPRu08DC5fnAkILCCwM/NZa0XqvHv39QJa8ZIOoNoDiIAS0Pjdmj/SG6B8pioikE4gIhNP/BEYAXIApt8sFwoS4N4CTIAu3CyGIlBFgACtIe8A7H0A6n/v/hOgNc9VVRFIJUCAUnH+q5gDsPcBqP+9+3+cAO180K95pKqKQA2BrHtnZx0/AvMjsJq75Z+rEiAC9HEUwMjvFux8aEauZ7QnnyPwagROuwcj10OACFDlfUiACBABqrwDrY1AEoGIcET+8bCzDgEiQEnxnypDgAgQAZq6dUxC4CwCO8UlS6QIEAGqvIsIEAEiQJV3oLURSCJAgK6DdAD2PgD1v3f//RL09WemGQgcSYAAXW+LA7D3Aaj/vftPgK4/M81A4EgCBOh6WxyAvQ9A/e/dfwJ0/ZlpBgJHEiBA19viAOx9AOp/7/4ToOvPTDMQOJIAAbreFgdg7wNQ/3v3f6sARR5Pkb8uidQxBgEEfk4gIkkRbpH7NLKWvwLzV2CRvK0aQ4AI0La/AouEOPJgjdQxBgEECNAoAw7A3geg/vfuvzdAoyekzxF4IQKRtzKR7Ub+oRJZyxsgb4AieVs1hgARIG+AVt1d6iJwGIGIlEQumQBFKI3H/PADARpTWjeCABEgArTu/lIZgaMIEKBP2+EA7H0A6n/v/vsR2FHHk4tBYC0BAkSAfkqAAPQWgO79J0BrzxvVETiKAAEiQATo/xPoLgDd90+AjjqeXAwCawkQIAJEgAjQjwQI0Idv/Q7Q2jNHdQSOIUCACBABIkAE6J8Etr4BivzlyDEnhQtBoCmBiCRF7uVIHX8G76/AKm+z7m9Auu+fAFXefdZG4EACEXEhQDmN82fwBDAnSXNVCNDGH4FFHppzbTQLAQSyCBCgLJLjOgSIAI1Tsm4EASJA69KlMgIPJECA9jWNABGgfWn7+UoEiABV5s/aCBxHgADtawkBIkD70kaA3hLwO0CV6bM2AgcSIED7mkKACNC+tBEgAlSZNmsj8AACBGhfkwgQAdqXNgJEgCrTZm0EHkCAAO1rEgEiQPvSRoAIUGXarI3AAwgQoH1NIkAEaF/aCBABWpC2yIERWdbXBEQo3R+jX7/OMMInktVIHV+ESADu39HzFbr/FVT3/fsl6Pl7518zIw/6yDKRQyVSx5j7B3yE4av2K5LnyN4jdd6//yaCetkYb2AI2LJwBQp3F5Dq/ROgQEhHQyIP+lGN//o8cqhE6hhDgO5kIJLnSFYjdQjQF3dadXsuASSAt0N0owABugHvlKmRB33kWiOHSqSOMQToTgYieY5kNVKHABGgO1m9O5cA9hZAb4Du3kH/OT/yoI8sEzlUInWMIUB3MhDJcySrkToEiADdyerduQSIAH0chSjrYRepM7qWEz+PPOgj1/2qfCJ73zlGv+4LYiSrEc4EiADtvPffrkWACBABunkHRh70kSUih0qkjjH3D/gIw1ftVyTPkb1H6hAgAhS511aNIUAEiADdvLsiD/rIEpFDJVLHGAJ0JwORPEeyGqlDgAjQnazenUuACBABunkXRR70kSUih0qkjjEE6E4GInmOZDVShwARoDtZvTuXABEgAvQrd1HkIR45DCI36s61ItfzxDE7Ge5ca2cvsvYVqUOACNDObPsdoE8JdBdAfwU2uPsiD3ECVPkI+3Rt/brfiyyGkToEiADdT+x8he4C0H3/BIgAzT89DpwZOXQJ6/0fEUYYRnpBgAhQ5WOkuwB03z8BIkCVz5/0tSOHbuTwjlzYzrUi15M1JmtfkToEiABl5XamTncB6L5/AkSAZp4bx86JHLoEyBugHwl0PwDsv/cvAXfvPwEiQMfKzMyFEaAZamt+jyrSC2+AvAG6n9j5Ct0FoPv+CRABmn96HDgzcuh6A+QNkDdA/yTQ/QC0/95vwAgQATpQY+YviQDNs/txZhbDSB1vgLwBmK6bAwAAFjJJREFUup/Y+QoEiAD5HqBfuX8iD3FvFOYfQNkz9es+0SyGkToEiADdT+x8BQJEgNoKUOQBnSU387fomt/PyLqenXX0aw/tLM6ROgSIAO1J9S+vQoAIEAH6lTuQAFU+np4vfxEJeNWMRfZOgAhQ5ROGABEgAkSAKp9B4bUjB+qrykQYUsLALM6ROgSIACVEdroEASJABIgATT9Adk6MHKgE6H5HsjhH6hAgAnQ/sfMVCBABIkAEaP4JsnFm5EAlQPcbksU5UocAEaD7iZ2vQIAIEAEiQPNPkI0zIwcqAbrfkCzOkToEiADdT+x8BQJEgAgQAZp/gmycGTlQCdD9hmRxjtQhQATofmLnKxAgAkSACND8E2TjzMiBSoDuNySLc6QOASJA9xM7X4EAESACRIDmnyAbZ0YOVAJ0vyFZnCN1CBABup/Y+QoEiAARIAI0/wTZODNyoBKg+w3J4hypQ4AI0P3EzlcgQASIABGg+SfIxpmRA5UA3W9IFudIHQJEgO4ndr4CASJABIgAzT9BNs6MHKgE6H5DsjhH6hAgAnQ/sfMVCBABIkAEaP4JsnFm5EAlQPcbksU5UocAEaD7iZ2vQIAIEAEiQPNPkI0zIwcqAbrfkCzOkToEiADdT+x8BQJEgAgQAZp/gmycGTlQCdD9hmRxjtQhQATofmLnKxAgAkSACND8E2TjzMiBSoDuNySLc6TOu3df37/gGxW++IKA3MB3eyoB6S0g1f3//MOHbwkQAbr9INtRIHKgEqD7ncjiHKlDgByA9xM7X4EA9/4HAAEa3DsO1PmHS/bMyIGqX/epZ3GO1CFABOh+YucrECAC1PYNUOS2iTzEsw7dnWtF9v7EMTsZ7lxrZy+y9hWpQ4AI0M5sv12LABEgAvQrd2DkIU6AKh9hn66tX/d7kcUwUocAEaD7iZ2vQIAIEAEiQPNPkMNmRg5dwvrrTctiGKlDgAhQ5SOEABEgAkSAKp9BqWtHDl0CRIB+JOAA7H0A6n/v/rf+JejIyetAjVA6Z4x+3e9FFsNIHW+AvAG6n9j5CgSIAHkD5A3Q/BPksJmRQ9cbIG+AvAH6JwEC0FsAuvffG6DBAe5APcxw9Gt5Q7IyH6njDZA3QMsD/SsLdBeA7vsnQA7UyudP+tqRQ9cbIG+AvAHyBsgbMG8ACRABSpeQyoIE6D79LIaROt4AeQN0P7HzFbq/Aem+fwI0f+/8a2bkQR9ZJuvNRGStzmP0yxsgb4C8AfIGyBsgApRgAg7UBIgbS+gXASJABIgAESAClHDwOlATIG4soV8EiAARIAJEgAhQwsHrQE2AuLGEfhEgAkSACBABIkAJB68DNQHixhL6RYAIEAEiQASIACUcvA7UBIgbS+gXASJABIgAESAClHDwOlATIG4soV8EiAARIAJEgAhQwsHrQE2AuLGEfhEgAkSACBABIkAJB68DNQHixhL6RYAIEAEiQASIAG08eC2FwBMIRAQx8qWdkTq+Cdo3QVfeE92/Cbn7/glQ5d1nbQQOJBARFwKU07gffiBAOSTnqnQXgO77J0Bz941ZCLwsAQK0r7UEiADuS9vPVyJAH779OGpA1r/2InVG1+JzBBBYS4AAreX70+oEiADtSxsBekvAG6DK9FkbgQMJEKB9TSFABGhf2ggQAapMm7UReAABArSvSQSIAO1LGwEiQJVpszYCDyBAgPY1iQARoH1pI0AEqDJt1kbgAQQI0L4mESACtC9tBIgAVabN2gg8gAAB2tckAkSA9qWNABGgyrRZG4EHECBA+5pEgAjQvrQRIAJUmTZrI/AAAgRoX5MIEAHalzYCRIAq02ZtBB5AYKcAvX//TSkRAkJAKgPY/YsIq/fve4Aq029tBA4kQID2NaX6ACCABHBf2s97A0WAKrtvbQQOJECA9jWFAH2xD/YvrEQAewsgASq9/SyOwHkECNC+nhAgArQvbT9fqbsAEqDK9FkbgQMJEKB9TSFABGhf2gjQWwIEqDJ91kbgQAIEaF9TCBAB2pc2AkSAKtNmbQQeQIAA7WsSASJA+9JGgAhQZdqsjcADCBCgfU0iQARoX9oIEAGqTJu1EXgAAQK0r0kEiADtSxsBIkCVabM2Ag8gQID2NYkAEaB9aSNABKgybdZG4AEECNC+JhEgArQvbQSIAFWmzdoIPIAAAdrXJAJEgPaljQARoMq0WRuBBxAgQPuaRIAI0L60ESACVJk2ayPwAAIEaF+TCBAB2pc2AkSAKtNmbQQeQIAA7WsSASJA+9JGgAhQZdqsjcADCBCgfU0iQARoX9oIEAGqTJu1EXgAAQK0r0kEiADtSxsBIkCVabM2Ag8gQID2NYkAEaB9aSNABKgybdZG4AEECNC+JhEgArQvbQSIAFWmzdoIPIAAAdrXJAJEgPaljQARoMq0WRuBBxAgQPuaRIAI0L60ESACVJk2ayPwAAIEaF+TCBAB2pc2AkSAKtNmbQQeQIAA7WsSASJA+9JGgAhQZdqsjcADCBCgfU0iQARoX9oIEAGqTJu1EXgAAQK0r0kEiADtSxsBIkCVabM2Ag8gQID2NYkAEaB9aSNABKgybdZG4AEECNC+JhEgArQvbQSIAFWmzdoIPIAAAdrXJAJEgPaljQARoMq0WRuBBxAgQPuaRIAI0L60ESACVJk2ayPwAAIEaF+TCBAB2pc2AkSAKtNmbQQeQIAA7WsSASJA+9JGgAhQZdqsjcADCBCgfU0iQARoX9oIEAGqTJu1EXgAgZ0C9O7d16VECAgBqQzgDz/8ULn8Z93z//mHD99+HHXgT3/8w2jIZ1kPzeFCBiCAwFICWfdypA4BcgAuDfOgeHcB6L5/AlR591kbgQMJRMQl6x9FBIgAVd4C3QWg+/4JUOXdZ20EDiRAgPY1xY9ACOC+tP18JQLkR2CV+bM2AscRIED7WkKACNC+tBGgtwS8AapMn7UROJAAAdrXFAJEgPaljQARoMq0WRuBBxAgQPuaRIAI0L60ESACVJk2ayPwAAIEaF+TCBAB2pc2AkSAKtNmbQQeQIAA7WsSASJA+9JGgAhQZdqsjcADCBCgfU0iQARoX9oIEAGqTJu1EXgAAQK0r0kEiADtSxsBIkAL0hY5MCLLRr5cLlLHmF8noF/3+USyGuHsixAJQOXzqvv34HTfvz+DT7j7Ig/6yDKRQyVSx5j7B3yE4av2K5LnyN4jdQgQAYrca6vGdBeA7vsnQAl3VuRBH1kmcqhE6hhDgO5kIJLnSFYjdQgQAbqT1btzuwtA9/0ToLt30H/OjzzoI8tEDpVIHWMI0J0MRPIcyWqkDgEiQHeyendudwHovn8CdPcOIkAJBPeWiBzMkSuKSECkzmljInwie4/UIUAEqDL/3QWg+/4JUMLdF3nQR5aJHCqROsZ4A3QnA5E8R7IaqUOACNCdrN6d210Auu+fAN29g7wBSiC4t0TkYI5cUUQCInVOGxPhE9l7pA4BIkCV+e8uAN33T4AS7r7Igz6yTORQidQxxhugOxmI5DmS1UgdAkSA7mT17tzuAtB9/wTo7h3kDVACwb0lIgdz5IoiEhCpc9qYCJ/I3iN1CBABqsx/dwHovn8CNLj7Ig/xyGEQucl3rhW5nieO2clw51o7e5G1r0gdAkSAdmb77VrdBaD7/gkQAap8/qSvHTl0Cev9HxFGGEZ6QYAIUPpD4ELB7gLQff8EiABdeFycPzRy6EYO78hOd64VuZ6sMVn7itQhQAQoK7czdboLQPf9EyACNPPcOHZO5NAlQN4A/Uig+wFg/1+UPsv8z3Br/wFAgAhQ6QMge3ECdJ9oFsNIHW+Aag8AAkSA7j8x5itUCyABIkDz6T1wZuTQ9QbIGyBvgP5JgAARoMrHOAGqpB9Y24EagHTQEP2634wshpE63gB5A3Q/sfMVCGBvAfQGyBug+afHgTMjh643QN4AeQPkDZA3YN4AEiACdKDGzF8SAZpn9+PMLIaROt4AeQN0P7HzFbwB8gbo4yg+kX8xRx52kTqja8n83DVn0lxfS7/WM/6vFbI4R+oQIAK0J9W/vAoBIkAE6FfuQNJW+Xj6dO3Igapf9/uVxTlShwARoPuJna9AgAgQASJA80+QjTMjByoBut+QLM6ROgSIAN1P7HwFAkSACBABmn+CbJwZOVAJ0P2GZHGO1Hn//pv7F3yjQvWf4TqAex/A+l/b/9a/BB15QDtQb5wuyVP1KxnovymXxTlShwDVHgAE0Bu4PU+VM38HiwANuk+AKm8PvwNUQT8iLpH7IlKHABGgioz/uCYB7C2ABIgAVT5/Lq0dOVAjB/OlRW8O7nzNkb0TIAJ08xa7NZ0AESC/A+R3gG49RHZNjhyoBOh+N7I4R+oQIAJ0P7HzFQgQASJABGj+CbJxZuRAJUD3G5LFOVKHABGg+4mdr0CACBABIkDzT5CNMyMHKgG635AszpE6BIgA3U/sfAUCRIAIEAGaf4JsnBk5UAnQ/YZkcY7UIUAE6H5i5ysQIAJEgAjQ/BNk48zIgUqA7jcki3OkDgEiQPcTO1+BABEgAkSA5p8gG2dGDlQCdL8hWZwjdQgQAbqf2PkKBIgAESACNP8E2TgzcqASoPsNyeIcqUOACND9xM5XIEAEiAARoPknyMaZkQOVAN1vSBbnSB0CRIDuJ3a+AgEiQASIAM0/QTbOjByoBOh+Q7I4R+oQIAJ0P7HzFQgQASJABGj+CbJxZuRAJUD3G5LFOVKHABGg+4mdr0CACBABIkDzT5CNMyMHKgG635AszpE6BIgA3U/sfAUCRIDaClDktok8xLMO3Z1rRfb+xDE7Ge5ca2cvsvYVqUOACNDObL9diwARIAL0K3dg5CFOgCofYZ+urV/3e5HFMFKHABGg+4mdr0CACBABIkDzT5DDZkYOXcL6603LYhipQ4AIUOUjhAARIAJEgCqfQalrRw5dAkSAfiTgAOx9AOp/7/5//uHDtwSIAKVKSGUxAnSffhbDSB1vgLwBup/Y+QoEiAARIAI0/wQ5bGbk0PUGyBsgb4D+SYAA9BaA7v33BmhwgDtQDzMc/VrekKzMR+p4A+QN0PJA/8oC3QWg+/4JkAO18vmTvnbk0PUGyBsgb4C8AfIGzBtAAkSA0iWksiABuk8/i2GkjjdA3gDdT+x8he5vQLrvnwDN3zv/mhl50EeWyXozEVmr8xj98gbIGyBvgLwB8gaIACWYgAM1AeLGEvpFgAgQASJABIgAJRy8DtQEiBtL6BcBIkAEiAARIAKUcPA6UBMgbiyhXwSIABEgAkSACFDCwetATYC4sYR+ESACRIAIEAEiQAkHrwM1AeLGEvpFgAgQASJABIgAJRy8DtQEiBtL6BcBIkAEiAARIAKUcPA6UBMgbiyhXwSIABEgAkSACFDCwetATYC4sYR+nSNA7959vbHzP1/qiy98EWFlA7p/EZ/91/6/2AhQ5d1vbQQOJBARxMiXdkbqEKDaA4AAEuDKR1C1ABKgyu5bG4EDCUTEhQDlNK76ACBABCgnyXNVqvNPgOb6ZhYCL0uAAO1rbfUBQIAI0L60/3yl6vwToMruWxuBAwkQoH1NqT4ACBAB2pd2AlTJ2toIIBAgQIACkJKGECC/A5UUpaky3QXYG6Cp2JiEwOsSIED7ekuACNC+tP18JQL04duPowZk/cJjpM7oWnyOAAJrCRCgtXx/Wp0AEaB9aSNAbwl4A1SZPmsjcCABArSvKQSIAO1LGwEiQJVpszYCDyBAgPY1iQARoH1pI0ClAhRptB+TRSgZg8AcgYjcRCpH7tPIWr4IkQBE8rZqTPffgem+/60/AouEOPJgjdQxBgEEfk4gIiURbpH7NLIWASJAkbytGtNdALrvnwCturPUReBAAhEpiVw2AYpQGo/xIzACOE7JuhEEaONfgUXaGHmwRuoYgwAC3gCNMtD9ALB/X4Q4ukdWfl79DwBvgFZ2V20EDiPgDdCnDSEABKDyFq0WgO75J0CV6bc2ApsJECAC9FMC3Q9A++8twARo8wFkOQQqCRAgAkSA/j8BAkSAtn0TdOTB73eAIpSMQWCOAAEiQASIAP1IoLsAegM0d46YhcAjCRAgAkSACBAB+ieBrQIUebsTeUBH6jzydHLRCNwgkHXv7Kzje4D8GfiNyN+e2v0NSPf9E6Dbt5ACCJxBYKe4RP4RErkeAkSAKu+e7gLQff8EqPLuszYCiQQiwpElLll1CBABSrwFLpfqLgDd90+ALt8yJiBwJgECdL0v3Q8A++/9V1Dd+0+Arj8zzUDgSAIE6Hpbuh8A9k+Art81eTOqvwiSAOX1UiUESgkQoOv4CQABuJ6avBnVAtA9/wQoL8sqIVBKgABdx9/9ALB/Anj9rsmbUS2ABCivlyohUEqAAF3HTwAIwPXU5M2oFoDu+SdAeVlWCYFSAgToOv7uB4D9E8Drd03ejGoBPE6AImizHvSRtYxB4AQCOzOftVakjj+D92fwlfcXAewtgASo8u6zNgJBAhGZiHw3T2S5rLUidQgQAYpkctUYAkSAtv3PUE97QK+6qdRFIJtARCZOu78i10yACFD2vXKlHgEiQAToyh1jLAIFBCIyQYCuN8YB2PsA1P/e/fcjsOvPTDMQ2E7gVQXo/ftvtrP86YLVv4TpAO59AOt/bf8JUOnj1+IIxAgQoBinq6MIkB/BXc1M5ngCRIAu52nnYXD54kxAYAGBnZnPWitSxxug2gOAABLABY+rcMlqAfQGKNwqAxGoIxCRiSf+DhABIkB1d9VnnxHA3gJIgCrvPmsjECRAgIKgLg5zAPY+APW/d/+3CtDFZ5PhCCBwKIHI26aItHkD5A1QZcQJEAHa9mfwlUG3NgII5BEgQDksq38HggD0FoDu/fcGKOc5pgoCrQgQoJx2EyBvwHKSNFeFAH341hugueyYhUBbAgQop/UEiADlJGmuCgEiQHPJMQuBxgQIUE7zCRAByknSXBUCRIDmkmMWAo0JEKCc5hMgApSTpLkqBIgAzSXHLAQaEyBAOc0nQAQoJ0lzVQgQAZpLjlkINCZAgHKaT4AIUE6S5qoQIAI0lxyzEGhMgADlNJ8AEaCcJM1VIUBJAjSH3ywEEHhVAr4IcdxZAkSAxilZN4IAEaB16VIZgcYECNC4+QSIAI1Tsm4EASJA69KlMgKNCRCgcfMJEAEap2TdCAJEgNalS2UEGhMgQOPmEyACNE7JuhEEiACtS5fKCDQmQIDGzSdABGicknUjCBABWpculRFoTIAAjZtPgAjQOCXrRhAgArQuXSoj0JgAARo3nwARoHFK1o0gQARoXbpURqAxAQI0bj4BIkDjlKwbQYAI0Lp0qYxAYwIEaNx8AkSAxilZN4IABQRoHX6VEUCgM4H3778p3X73A8D+fyjNHwGuFeDPPxCg0hvA4gh0JkCAag8AAkSAKp8/1QJIgCq7b20EmhMgQASo8hYggL0FkABV3n3WRqA5AQJEgCpvAQJEgD5WBtDaCCDQlwABIkCV6SdABIgAVd6B1kagMQECRIAq40+ACBABqrwDrY1AYwIEiABVxp8AESACVHkHWhuBxgQIEAGqjD8BIkAEqPIOtDYCjQkQIAJUGX8C1FuA/h9qUwqXR5/JBQAAAABJRU5ErkJggg==;fontFamily=Architects Daughter;fontSource=https%3A%2F%2Ffonts.googleapis.com%2Fcss%3Ffamily%3DArchitects%2BDaughter;fontColor=#FFFFFF;" vertex="1" parent="1">
          <mxGeometry x="-438" y="-557" width="576" height="864" as="geometry" />
        </mxCell>
        <mxCell id="QFEPiinMAQr5u50dVilm-12" value="" style="whiteSpace=wrap;html=1;fillColor=#FFFFFF;opacity=80;" vertex="1" parent="1">
          <mxGeometry x="-439" y="-557" width="576" height="864" as="geometry" />
        </mxCell>
        <mxCell id="QFEPiinMAQr5u50dVilm-5" value="Snake Body" style="text;html=1;align=center;verticalAlign=middle;whiteSpace=wrap;rounded=0;fontFamily=Architects Daughter;fontSource=https%3A%2F%2Ffonts.googleapis.com%2Fcss%3Ffamily%3DArchitects%2BDaughter;fontColor=#000000;fontSize=24;" vertex="1" parent="1">
          <mxGeometry x="-328" y="-437" width="60" height="30" as="geometry" />
        </mxCell>
        <mxCell id="QFEPiinMAQr5u50dVilm-6" value="Food Block" style="text;html=1;align=center;verticalAlign=middle;whiteSpace=wrap;rounded=0;fontFamily=Architects Daughter;fontSource=https%3A%2F%2Ffonts.googleapis.com%2Fcss%3Ffamily%3DArchitects%2BDaughter;fontColor=#000000;fontSize=24;" vertex="1" parent="1">
          <mxGeometry x="-38" y="-427" width="60" height="30" as="geometry" />
        </mxCell>
        <mxCell id="QFEPiinMAQr5u50dVilm-7" value="UI Element" style="text;html=1;align=center;verticalAlign=middle;whiteSpace=wrap;rounded=0;fontFamily=Architects Daughter;fontSource=https%3A%2F%2Ffonts.googleapis.com%2Fcss%3Ffamily%3DArchitects%2BDaughter;fontColor=#000000;fontSize=24;" vertex="1" parent="1">
          <mxGeometry x="-328" y="-140" width="60" height="30" as="geometry" />
        </mxCell>
        <mxCell id="QFEPiinMAQr5u50dVilm-8" value="Background Grid" style="text;html=1;align=center;verticalAlign=middle;whiteSpace=wrap;rounded=0;fontFamily=Architects Daughter;fontSource=https%3A%2F%2Ffonts.googleapis.com%2Fcss%3Ffamily%3DArchitects%2BDaughter;fontColor=#000000;fontSize=24;" vertex="1" parent="1">
          <mxGeometry x="-48" y="-140" width="60" height="30" as="geometry" />
        </mxCell>
        <mxCell id="QFEPiinMAQr5u50dVilm-10" value="Nineslice" style="text;html=1;align=center;verticalAlign=middle;whiteSpace=wrap;rounded=0;fontFamily=Architects Daughter;fontSource=https%3A%2F%2Ffonts.googleapis.com%2Fcss%3Ffamily%3DArchitects%2BDaughter;fontColor=#000000;fontSize=24;" vertex="1" parent="1">
          <mxGeometry x="-328" y="153" width="60" height="30" as="geometry" />
        </mxCell>
        <mxCell id="QFEPiinMAQr5u50dVilm-13" value="" style="whiteSpace=wrap;html=1;fillColor=none;dashed=1;dashPattern=8 8;strokeWidth=5;" vertex="1" parent="1">
          <mxGeometry x="-439" y="-557" width="581" height="870" as="geometry" />
        </mxCell>
        <mxCell id="QFEPiinMAQr5u50dVilm-14" value="" style="endArrow=none;dashed=1;html=1;rounded=0;entryX=0.5;entryY=0;entryDx=0;entryDy=0;exitX=0.5;exitY=1;exitDx=0;exitDy=0;strokeWidth=5;dashPattern=8 8;" edge="1" parent="1" source="QFEPiinMAQr5u50dVilm-13" target="QFEPiinMAQr5u50dVilm-13">
          <mxGeometry width="50" height="50" relative="1" as="geometry">
            <mxPoint x="172" y="-117" as="sourcePoint" />
            <mxPoint x="222" y="-167" as="targetPoint" />
          </mxGeometry>
        </mxCell>
        <mxCell id="QFEPiinMAQr5u50dVilm-16" value="" style="endArrow=none;dashed=1;html=1;rounded=0;exitX=0.002;exitY=0.333;exitDx=0;exitDy=0;exitPerimeter=0;strokeWidth=5;dashPattern=8 8;" edge="1" parent="1" source="QFEPiinMAQr5u50dVilm-13">
          <mxGeometry width="50" height="50" relative="1" as="geometry">
            <mxPoint x="172" y="-117" as="sourcePoint" />
            <mxPoint x="142" y="-268" as="targetPoint" />
          </mxGeometry>
        </mxCell>
        <mxCell id="QFEPiinMAQr5u50dVilm-17" value="" style="endArrow=none;dashed=1;html=1;rounded=0;exitX=0.002;exitY=0.333;exitDx=0;exitDy=0;exitPerimeter=0;strokeWidth=5;dashPattern=8 8;" edge="1" parent="1">
          <mxGeometry width="50" height="50" relative="1" as="geometry">
            <mxPoint x="-443" y="24" as="sourcePoint" />
            <mxPoint x="137" y="23" as="targetPoint" />
          </mxGeometry>
        </mxCell>
        <mxCell id="QFEPiinMAQr5u50dVilm-18" value="32px" style="text;html=1;align=center;verticalAlign=middle;whiteSpace=wrap;rounded=0;fontFamily=Architects Daughter;fontSource=https%3A%2F%2Ffonts.googleapis.com%2Fcss%3Ffamily%3DArchitects%2BDaughter;fontColor=#000000;fontSize=24;" vertex="1" parent="1">
          <mxGeometry x="-338" y="-712" width="60" height="30" as="geometry" />
        </mxCell>
        <mxCell id="QFEPiinMAQr5u50dVilm-19" value="32px" style="text;html=1;align=center;verticalAlign=middle;whiteSpace=wrap;rounded=0;fontFamily=Architects Daughter;fontSource=https%3A%2F%2Ffonts.googleapis.com%2Fcss%3Ffamily%3DArchitects%2BDaughter;fontColor=#000000;fontSize=24;" vertex="1" parent="1">
          <mxGeometry x="-48" y="-712" width="60" height="30" as="geometry" />
        </mxCell>
        <mxCell id="QFEPiinMAQr5u50dVilm-20" value="32px" style="text;html=1;align=center;verticalAlign=middle;whiteSpace=wrap;rounded=0;fontFamily=Architects Daughter;fontSource=https%3A%2F%2Ffonts.googleapis.com%2Fcss%3Ffamily%3DArchitects%2BDaughter;fontColor=#000000;fontSize=24;" vertex="1" parent="1">
          <mxGeometry x="-628" y="-437" width="60" height="30" as="geometry" />
        </mxCell>
        <mxCell id="QFEPiinMAQr5u50dVilm-21" value="32px" style="text;html=1;align=center;verticalAlign=middle;whiteSpace=wrap;rounded=0;fontFamily=Architects Daughter;fontSource=https%3A%2F%2Ffonts.googleapis.com%2Fcss%3Ffamily%3DArchitects%2BDaughter;fontColor=#000000;fontSize=24;" vertex="1" parent="1">
          <mxGeometry x="-628" y="-170" width="60" height="30" as="geometry" />
        </mxCell>
        <mxCell id="QFEPiinMAQr5u50dVilm-22" value="32px" style="text;html=1;align=center;verticalAlign=middle;whiteSpace=wrap;rounded=0;fontFamily=Architects Daughter;fontSource=https%3A%2F%2Ffonts.googleapis.com%2Fcss%3Ffamily%3DArchitects%2BDaughter;fontColor=#000000;fontSize=24;" vertex="1" parent="1">
          <mxGeometry x="-628" y="153" width="60" height="30" as="geometry" />
        </mxCell>
        <mxCell id="QFEPiinMAQr5u50dVilm-23" value="" style="shape=partialRectangle;whiteSpace=wrap;html=1;bottom=1;right=1;left=1;top=0;fillColor=none;routingCenterX=-0.5;rotation=90;strokeWidth=3;" vertex="1" parent="1">
          <mxGeometry x="-658" y="138" width="290.5" height="60" as="geometry" />
        </mxCell>
        <mxCell id="QFEPiinMAQr5u50dVilm-24" value="" style="shape=partialRectangle;whiteSpace=wrap;html=1;bottom=1;right=1;left=1;top=0;fillColor=none;routingCenterX=-0.5;rotation=90;strokeWidth=3;" vertex="1" parent="1">
          <mxGeometry x="-658" y="-152" width="290.5" height="60" as="geometry" />
        </mxCell>
        <mxCell id="QFEPiinMAQr5u50dVilm-25" value="" style="shape=partialRectangle;whiteSpace=wrap;html=1;bottom=1;right=1;left=1;top=0;fillColor=none;routingCenterX=-0.5;rotation=90;strokeWidth=3;" vertex="1" parent="1">
          <mxGeometry x="-658" y="-442" width="290.5" height="60" as="geometry" />
        </mxCell>
        <mxCell id="QFEPiinMAQr5u50dVilm-26" value="" style="shape=partialRectangle;whiteSpace=wrap;html=1;bottom=1;right=1;left=1;top=0;fillColor=none;routingCenterX=-0.5;rotation=-180;strokeWidth=3;" vertex="1" parent="1">
          <mxGeometry x="-438" y="-663" width="290.5" height="60" as="geometry" />
        </mxCell>
        <mxCell id="QFEPiinMAQr5u50dVilm-28" value="" style="shape=partialRectangle;whiteSpace=wrap;html=1;bottom=1;right=1;left=1;top=0;fillColor=none;routingCenterX=-0.5;rotation=-180;strokeWidth=3;" vertex="1" parent="1">
          <mxGeometry x="-148.5" y="-663" width="290.5" height="60" as="geometry" />
        </mxCell>
      </root>
    </mxGraphModel>
  </diagram>
</mxfile>
